<svg width="30" height="31" viewBox="0 0 30 31" fill="none" xmlns="http://www.w3.org/2000/svg">
<path d="M28.7183 1.12233C28.4553 0.97048 28.165 0.871922 27.8639 0.832283C27.5628 0.792644 27.2568 0.8127 26.9635 0.891305C26.6701 0.969911 26.3952 1.10553 26.1542 1.29041C25.9133 1.47529 25.7111 1.70582 25.5593 1.96883L19.8513 11.8558C19.7363 10.6988 19.1952 9.62575 18.3333 8.84528C17.4714 8.06481 16.3501 7.63259 15.1873 7.63259C14.0245 7.63259 12.9033 8.06481 12.0413 8.84528C11.1794 9.62575 10.6384 10.6988 10.5233 11.8558L4.81531 1.96883C4.66347 1.70582 4.46132 1.4753 4.22039 1.29042C3.97945 1.10555 3.70447 0.969933 3.41113 0.891328C2.8187 0.732579 2.18748 0.815672 1.65631 1.12233C1.12515 1.42898 0.737562 1.93409 0.578813 2.52651C0.420063 3.11894 0.503157 3.75017 0.809813 4.28133L8.49981 17.5998V29.7498C8.49981 29.8659 8.54591 29.9771 8.62795 30.0592C8.71 30.1412 8.82128 30.1873 8.93731 30.1873C9.05335 30.1873 9.16463 30.1412 9.24667 30.0592C9.32872 29.9771 9.37481 29.8659 9.37481 29.7498V17.4836C9.37484 17.4068 9.35466 17.3314 9.31631 17.2648L2.72006 5.83983L5.20981 4.40233L11.0286 14.4748C11.4226 15.238 12.019 15.878 12.7525 16.3247C13.486 16.7715 14.3283 17.0079 15.1872 17.0079C16.046 17.0079 16.8883 16.7715 17.6219 16.3247C18.3554 15.878 18.9518 15.238 19.3458 14.4748L25.1648 4.40233L27.6546 5.83958L21.0583 17.2648C21.02 17.3314 20.9998 17.4068 20.9998 17.4836V29.7498C20.9998 29.8659 21.0459 29.9771 21.128 30.0592C21.21 30.1412 21.3213 30.1873 21.4373 30.1873C21.5533 30.1873 21.6646 30.1412 21.7467 30.0592C21.8287 29.9771 21.8748 29.8659 21.8748 29.7498V17.5998L29.5648 4.28058C29.8705 3.74932 29.9531 3.11852 29.7944 2.52648C29.6357 1.93444 29.2487 1.42949 28.7183 1.12233ZM2.28256 5.08183L1.56756 3.84383C1.47169 3.68028 1.4091 3.49939 1.38342 3.31156C1.35774 3.12373 1.36946 2.93267 1.41792 2.74939C1.46638 2.56611 1.55061 2.39423 1.66576 2.24363C1.78092 2.09304 1.92473 1.96671 2.0889 1.87192C2.25308 1.77713 2.43439 1.71575 2.62238 1.69131C2.81038 1.66688 3.00135 1.67987 3.18431 1.72954C3.36726 1.77921 3.53859 1.86458 3.68841 1.98073C3.83824 2.09688 3.96361 2.24153 4.05731 2.40633L4.77231 3.64433L2.28256 5.08183ZM15.1873 16.1333C14.4333 16.1333 13.6962 15.9097 13.0692 15.4908C12.4422 15.0719 11.9536 14.4765 11.665 13.7798C11.3765 13.0832 11.301 12.3166 11.4481 11.577C11.5952 10.8375 11.9583 10.1582 12.4915 9.62498C13.0247 9.0918 13.704 8.72869 14.4435 8.58158C15.1831 8.43448 15.9497 8.50998 16.6463 8.79854C17.3429 9.0871 17.9384 9.57575 18.3573 10.2027C18.7762 10.8297 18.9998 11.5668 18.9998 12.3208C18.9987 13.3316 18.5967 14.3007 17.8819 15.0154C17.1672 15.7302 16.1981 16.1322 15.1873 16.1333ZM28.8068 3.84383L28.0921 5.08183L25.6023 3.64433L26.3171 2.40633C26.4108 2.24153 26.5361 2.09688 26.686 1.98073C26.8358 1.86458 27.0071 1.77921 27.1901 1.72954C27.373 1.67987 27.564 1.66688 27.752 1.69131C27.94 1.71575 28.1213 1.77713 28.2855 1.87192C28.4496 1.96671 28.5935 2.09304 28.7086 2.24363C28.8238 2.39423 28.908 2.56611 28.9565 2.74939C29.0049 2.93267 29.0166 3.12373 28.991 3.31156C28.9653 3.49939 28.9027 3.68028 28.8068 3.84383Z" fill="white"/>
</svg>
