<svg width="23" height="29" viewBox="0 0 23 29" fill="none" xmlns="http://www.w3.org/2000/svg">
<path d="M22.2871 13.7124C22.0281 13.4535 21.7171 13.2656 21.3777 13.1586C21.6267 12.7908 21.7602 12.3578 21.7595 11.9049C21.7595 11.3054 21.5262 10.7419 21.1025 10.3182C20.7956 10.0113 20.4156 9.80426 20.0018 9.71332C20.0885 9.47238 20.1334 9.21582 20.133 8.95257C20.133 8.35307 19.8997 7.78957 19.4761 7.36588C19.2282 7.11807 18.9327 6.93532 18.6102 6.82626L21.1932 4.24332C21.6177 3.81876 21.851 3.25501 21.8501 2.65669C21.8501 2.04651 21.6097 1.47601 21.1732 1.05019C20.2984 0.197318 18.8705 0.219568 17.9901 1.09982L11.1653 7.92457C11.1135 7.60507 11.0617 7.28557 11.0097 6.96594C10.8152 5.76763 10.1746 4.70576 9.20522 3.97544C8.61466 3.53163 7.80628 3.58901 7.28316 4.11213C7.03984 4.35544 6.89041 4.68138 6.86228 5.03019L6.37978 11.0587C6.28697 12.2164 5.78359 13.3063 4.96228 14.1276L4.47816 14.6118L4.34747 14.4811C4.10334 14.2371 3.70766 14.2371 3.46359 14.4811L0.241656 17.7029C0.124469 17.8202 0.0585938 17.9791 0.0585938 18.1449C0.0585938 18.3106 0.124469 18.4696 0.241656 18.5868L3.11791 21.4631C3.36197 21.7071 3.75772 21.7071 4.00184 21.4631C4.24591 21.219 4.24591 20.8233 4.00184 20.5791L1.56753 18.1449L3.90566 15.8068L12.7517 24.6528L10.4136 26.9909L7.97934 24.5566C7.73528 24.3125 7.33953 24.3125 7.09541 24.5566C6.85134 24.8006 6.85134 25.1964 7.09541 25.4405L9.97166 28.3168C10.0937 28.4388 10.2537 28.4998 10.4136 28.4998C10.5735 28.4998 10.7335 28.4388 10.8555 28.3168L14.0775 25.0948C14.3215 24.8508 14.3215 24.455 14.0775 24.2109L13.9508 24.0843C14.1406 23.912 14.3465 23.7576 14.5664 23.6256L15.875 22.8408C16.6317 22.3873 17.332 21.8407 17.9565 21.2163L22.2872 16.8856C22.7117 16.4611 22.9449 15.8974 22.9441 15.299C22.944 14.6996 22.7108 14.1361 22.2871 13.7124ZM21.4032 16.0018L17.0726 20.3324C16.5205 20.8846 15.9013 21.3678 15.2323 21.7689L13.9235 22.5538C13.6159 22.7383 13.3282 22.9551 13.0656 23.1991L5.36216 15.4956L5.84628 15.0114C6.87734 13.9804 7.50934 12.612 7.62591 11.1584L8.10841 5.13019C8.11278 5.07576 8.13259 5.03057 8.16716 4.99601C8.21397 4.94919 8.33428 4.88444 8.45372 4.97426C9.16378 5.50926 9.63334 6.28769 9.77597 7.16638C9.89328 7.88801 10.01 8.60907 10.1268 9.33007C10.1643 9.56169 10.3283 9.75282 10.5517 9.82488C10.7749 9.89707 11.0198 9.83801 11.1857 9.67213L18.874 1.98376C19.273 1.58469 19.913 1.56738 20.3005 1.94513C20.4937 2.13363 20.6001 2.38638 20.6001 2.65763C20.6005 2.92226 20.4972 3.17157 20.3093 3.35944C18.9933 4.67532 15.6018 8.06682 14.3318 9.33694C14.0877 9.58101 14.0877 9.97676 14.3318 10.2208C14.4538 10.3429 14.6138 10.4039 14.7737 10.4039C14.9337 10.4039 15.0937 10.3428 15.2157 10.2208L17.1867 8.24976C17.5741 7.86238 18.2047 7.86226 18.5922 8.24982C18.7797 8.43738 18.883 8.68694 18.883 8.95344C18.8834 9.21813 18.7801 9.46738 18.5922 9.65532C18.1727 10.0748 17.0546 11.1929 16.6211 11.6263C16.377 11.8704 16.377 12.2661 16.6211 12.5103C16.7432 12.6323 16.9031 12.6933 17.063 12.6933C17.223 12.6933 17.383 12.6323 17.505 12.5103L18.8131 11.2021C19.0009 11.0143 19.2505 10.9108 19.5158 10.9108C19.7812 10.9108 20.0308 11.0143 20.2186 11.2021C20.4062 11.3897 20.5095 11.6393 20.5095 11.9058C20.5098 12.1704 20.4065 12.4197 20.2186 12.6076C20.0732 12.753 19.0262 13.7999 18.9105 13.9157C18.6664 14.1598 18.6664 14.5555 18.9105 14.7996C19.0325 14.9217 19.1925 14.9827 19.3524 14.9827C19.5123 14.9827 19.6723 14.9217 19.7943 14.7996L19.9976 14.5964C20.1854 14.4086 20.435 14.3051 20.7003 14.3051C20.9657 14.3051 21.2153 14.4085 21.4031 14.5964C21.5907 14.7839 21.694 15.0335 21.694 15.3C21.6944 15.5646 21.5911 15.8139 21.4032 16.0018Z" fill="white"/>
</svg>
