<svg width="152" height="152" viewBox="0 0 152 152" fill="none" xmlns="http://www.w3.org/2000/svg">
<rect width="152" height="152" rx="16" fill="white"/>
<path d="M96.5625 106.844H105.375V115.656H96.5625V106.844Z" fill="#B3B3B3"/>
<path d="M118.594 115.656V121.531H83.3438V115.656H87.75H96.5625H105.375H114.188H118.594Z" fill="#999999"/>
<path d="M84.8419 86.7806C83.9019 87.8234 83.3438 89.1894 83.3438 90.6875V93.625C83.3438 93.625 83.3438 99.6763 87.75 100.793V115.656H83.3438V121.531H73.0625V103.906L83.3438 86.2812L84.8419 86.7806Z" fill="#0572A3"/>
<path d="M43.6875 111.251V121.532H33.4062V109.782C33.4062 105.258 35.0513 101.014 37.8566 97.709C40.4269 100.367 43.6875 104.994 43.6875 111.251Z" fill="#1FB2E5"/>
<path d="M73.0614 103.906V121.531H65.7177V115.656H51.0302V121.531H43.6864V111.25C43.6864 104.993 40.4258 100.366 37.8555 97.7078C39.9411 95.2403 42.6877 93.3162 45.8748 92.2L52.9836 89.7031L61.3114 98.0309L62.7802 106.843L73.0614 103.906Z" fill="#0986CC"/>
<path d="M51.0312 115.656H65.7188V121.531H51.0312V115.656Z" fill="#1FB2E5"/>
<path d="M62.7809 86.2812L73.0622 103.906L62.7809 106.844L61.3122 98.0312L52.9844 89.7034L62.7809 86.2812Z" fill="#1FB2E5"/>
<path d="M118.594 90.6875V93.625H106.844V84.8125H112.719C114.334 84.8125 115.803 85.4734 116.875 86.5309C117.933 87.6031 118.594 89.0719 118.594 90.6875Z" fill="#F03A5A"/>
<path d="M114.188 100.793C113.747 100.91 113.262 100.969 112.719 100.969C106.844 100.969 106.844 93.625 106.844 93.625H118.594C118.594 93.625 118.594 99.6763 114.188 100.793Z" fill="#E0D0C1"/>
<path d="M95.0938 93.625H106.844C106.844 93.625 106.844 100.969 100.969 100.969C95.0938 100.969 95.0938 93.625 95.0938 93.625Z" fill="#D83055"/>
<path d="M95.0938 84.8125H106.844V93.625H95.0938V84.8125Z" fill="#EDE5DD"/>
<path d="M114.188 100.793V115.656H105.375V106.844H96.5625V115.656H87.75V100.793C88.1906 100.91 88.6753 100.969 89.2188 100.969C95.0938 100.969 95.0938 93.625 95.0938 93.625C95.0938 93.625 95.0938 100.969 100.969 100.969C106.844 100.969 106.844 93.625 106.844 93.625C106.844 93.625 106.844 100.969 112.719 100.969C113.262 100.969 113.747 100.91 114.188 100.793Z" fill="#EAAD75"/>
<path d="M87.75 100.793C83.3438 99.6763 83.3438 93.625 83.3438 93.625H95.0938C95.0938 93.625 95.0938 100.969 89.2188 100.969C88.6753 100.969 88.1906 100.91 87.75 100.793Z" fill="#E0D0C1"/>
<path d="M84.8419 86.7806C85.8994 85.5763 87.4709 84.8125 89.2188 84.8125H95.0938V93.625H83.3438V90.6875C83.3438 89.1894 83.9019 87.8234 84.8419 86.7806Z" fill="#F03A5A"/>
<path d="M83.3438 78.3789V86.2808L73.0625 103.906L62.7812 86.2808V78.3936C65.6306 80.582 69.1997 81.8745 73.0625 81.8745C76.9106 81.8745 80.4944 80.582 83.3438 78.3789Z" fill="#F4BAA6"/>
<path d="M92.8915 37.6509C94.9478 40.045 95.594 43.2616 94.7128 46.2284L90.4387 60.7103C84.3287 57.8316 85.2687 50.6347 85.2687 50.6347C76.1184 50.6347 73.0634 44.8625 73.0634 44.8625C73.0634 44.8625 70.0084 50.6347 60.8434 50.6347C60.8434 50.6347 61.7834 57.8316 55.6734 60.7103L51.3994 46.2284C50.5034 43.1587 51.2672 39.8687 53.4262 37.4159C56.2609 34.1994 60.8581 30.4688 66.9534 30.4688C69.0831 30.4688 70.4784 30.8212 71.3744 31.2766C72.4465 31.82 73.6803 31.82 74.7378 31.2766C75.6337 30.8212 77.029 30.4688 79.1734 30.4688C85.4009 30.4688 90.0715 34.3903 92.8915 37.6509Z" fill="#936444"/>
<path d="M62.7812 78.3936V85.2952C65.942 86.9006 69.4288 87.7495 73.0625 87.7495C76.6462 87.7495 80.183 86.8771 83.3438 85.2791V78.3789C80.4944 80.582 76.9106 81.8745 73.0625 81.8745C69.1997 81.8745 65.6306 80.582 62.7812 78.3936Z" fill="#E09B8D"/>
<path d="M83.3431 78.3802C80.4937 80.5833 76.91 81.8758 73.0619 81.8758C69.1991 81.8758 65.63 80.5833 62.7806 78.3948C62.4281 78.1305 62.0756 77.8514 61.7525 77.5577C58.7562 74.8552 56.7294 71.0952 56.3181 66.8211L55.6719 60.7111C61.7819 57.8323 60.8419 50.6355 60.8419 50.6355C70.0069 50.6355 73.0619 44.8633 73.0619 44.8633C73.0619 44.8633 76.1169 50.6355 85.2672 50.6355C85.2672 50.6355 84.3272 57.8323 90.4372 60.7111L89.7909 66.8211C89.3356 71.5505 86.8975 75.663 83.3431 78.3802Z" fill="#F4BAA6"/>
<path d="M73.0625 68.6562C72.2503 68.6562 71.5938 67.9997 71.5938 67.1875V62.7812C71.5938 61.969 72.2503 61.3125 73.0625 61.3125C73.8747 61.3125 74.5312 61.969 74.5312 62.7812V67.1875C74.5312 67.9997 73.8747 68.6562 73.0625 68.6562Z" fill="#D1897D"/>
<path d="M73.0629 74.5316C69.6157 74.5316 67.8121 72.8279 67.6182 72.6325C67.0439 72.0582 67.0439 71.13 67.6182 70.5557C68.1925 69.9814 69.1207 69.9814 69.695 70.5557C69.7244 70.5821 70.8318 71.5941 73.0629 71.5941C75.2939 71.5941 76.4013 70.5821 76.4483 70.5381C77.0329 69.9888 77.9567 70.0049 78.5163 70.5807C79.073 71.1579 79.0745 72.0656 78.5075 72.6311C78.3137 72.8279 76.51 74.5316 73.0629 74.5316Z" fill="#D1897D"/>
<path d="M57.1994 43.8785C56.96 43.8785 56.7176 43.8197 56.4929 43.6963C55.7835 43.3056 55.5235 42.4126 55.9142 41.7018C57.6753 38.4984 61.8818 35.0527 66.9534 35.0527C67.7656 35.0527 68.4221 35.7093 68.4221 36.5215C68.4221 37.3337 67.7656 37.9902 66.9534 37.9902C62.8129 37.9902 59.6228 41.057 58.4875 43.1191C58.2216 43.6038 57.7179 43.8785 57.1994 43.8785Z" fill="#B7855F"/>
<path d="M62.0735 46.1998C61.8355 46.1998 61.5947 46.1425 61.3699 46.0191C60.6576 45.6299 60.3961 44.7384 60.7868 44.0275C61.8649 42.0535 64.5542 39.9297 67.9073 39.9297C68.7196 39.9297 69.3761 40.5862 69.3761 41.3984C69.3761 42.2107 68.7196 42.8672 67.9073 42.8672C65.6058 42.8672 63.9285 44.4035 63.363 45.436C63.0957 45.9237 62.5919 46.1998 62.0735 46.1998Z" fill="#B7855F"/>
<path d="M67.9219 61.3125C69.1386 61.3125 70.125 60.3261 70.125 59.1094C70.125 57.8926 69.1386 56.9062 67.9219 56.9062C66.7051 56.9062 65.7188 57.8926 65.7188 59.1094C65.7188 60.3261 66.7051 61.3125 67.9219 61.3125Z" fill="#995E55"/>
<path d="M78.2031 61.3125C79.4199 61.3125 80.4062 60.3261 80.4062 59.1094C80.4062 57.8926 79.4199 56.9062 78.2031 56.9062C76.9864 56.9062 76 57.8926 76 59.1094C76 60.3261 76.9864 61.3125 78.2031 61.3125Z" fill="#995E55"/>
</svg>
