<svg width="13" height="17" viewBox="0 0 13 17" fill="none" xmlns="http://www.w3.org/2000/svg">
<path d="M12.5686 4.48399C12.3261 3.66486 11.9368 2.97528 11.3777 2.37601C10.8311 1.78982 10.2022 1.34532 9.45483 1.01696C8.60347 0.643934 7.61649 0.462686 6.67355 0.506402C6.32956 0.522038 5.99355 0.540227 5.66424 0.587773C4.7363 0.720518 3.91908 0.997178 3.16632 1.43339C2.20551 1.99118 1.45531 2.74936 0.93677 3.68751C0.66745 4.17573 0.402277 5.03667 0.289635 5.59892C0.156251 6.26201 0.27368 7.41173 0.541405 8.06014C0.875822 8.86842 1.15089 9.22677 1.82195 9.7268C1.8261 9.72967 2.24093 10.0284 2.51727 10.0239C3.02049 10.0143 3.12069 9.53279 3.16856 9.30144C3.17749 9.25772 3.18643 9.21465 3.19696 9.17412C3.20621 9.13838 3.21834 9.10009 3.23078 9.0602C3.30194 8.83045 3.39863 8.51582 3.23812 8.23692C3.17781 8.13226 3.10633 8.05089 3.04347 7.97941C3.00933 7.94048 2.97486 7.90282 2.9471 7.86134C2.70841 7.50682 2.58748 7.06327 2.58748 6.54314C2.58748 5.86058 2.74192 5.24217 3.06006 4.65311C3.637 3.58444 4.5943 2.91018 5.82889 2.70213C6.53155 2.58438 7.35036 2.63384 7.96463 2.83041C8.52593 3.01038 9.00362 3.32852 9.34634 3.75133C9.70915 4.19871 9.91657 4.76607 9.96252 5.4381C9.99251 5.86697 9.95358 6.29903 9.92135 6.5859C9.79722 7.6903 9.47589 8.57932 8.96597 9.22869C8.54827 9.76158 8.09802 10.0287 7.58905 10.0459C7.26133 10.0587 7.01627 9.99165 6.79481 9.83306C6.5858 9.68404 6.46135 9.50024 6.40264 9.25549C6.33626 8.97596 6.41636 8.68622 6.50156 8.37924L6.51528 8.3301C6.58963 8.06014 6.66749 7.81348 6.74375 7.57064C6.86374 7.18804 6.98818 6.79267 7.09062 6.33381C7.20645 5.81591 7.22177 5.39757 7.13784 5.05581C7.03445 4.63141 6.8063 4.31359 6.45976 4.11064C6.09311 3.89684 5.57361 3.85568 5.1374 4.00565C4.4874 4.22743 3.99152 4.81776 3.77676 5.62509C3.66795 6.03513 3.63636 6.4656 3.68326 6.9034C3.71932 7.24675 3.79623 7.55883 3.93823 7.93569C3.93344 7.95197 3.92833 7.9692 3.92323 7.98579C3.91302 8.0193 3.90376 8.05184 3.89674 8.07961C3.74389 8.71781 3.59519 9.34707 3.44681 9.97506C3.30609 10.5715 3.16505 11.1669 3.02113 11.7684L2.98858 11.9031C2.84116 12.5157 2.68927 13.1495 2.65385 13.9061L2.63789 14.222C2.60662 14.8097 2.57503 15.4176 2.65385 15.9799C2.66948 16.0897 2.70395 16.3357 2.94614 16.4215C3.01858 16.4758 3.08814 16.4987 3.15579 16.4987C3.35842 16.4987 3.53871 16.2929 3.6922 16.1184C4.19287 15.5491 4.61855 14.8302 4.99381 13.9214C5.16166 13.5148 5.27302 13.0774 5.38056 12.6542L5.44534 12.4021C5.52383 12.1009 5.60074 11.7955 5.677 11.4933L5.68211 11.4732C5.82347 11.597 5.98685 11.7087 6.17608 11.8124C6.57655 12.0342 7.02839 12.1634 7.51853 12.1963C7.97803 12.2276 8.46179 12.1686 8.99564 12.0154C9.40122 11.8999 9.78925 11.724 10.1498 11.4933C11.4435 10.665 12.3251 9.21592 12.6327 7.41332C12.725 6.87468 12.7642 6.44166 12.7642 5.96557C12.7636 5.41735 12.6982 4.91828 12.5686 4.48399ZM12.0032 7.30706C11.7259 8.93065 10.9453 10.2268 9.80488 10.9569C9.49663 11.1545 9.16509 11.3041 8.81886 11.403C8.35744 11.5358 7.94517 11.5872 7.56097 11.561C7.15858 11.5339 6.80662 11.434 6.48273 11.2547C6.15884 11.0776 5.94888 10.8851 5.80145 10.6308L5.41023 9.95496L5.05763 11.3389C4.982 11.6392 4.90542 11.943 4.82724 12.2426L4.76182 12.4985C4.65493 12.9181 4.55441 13.3148 4.40347 13.6792C4.06746 14.4935 3.6922 15.1378 3.25822 15.6458C3.2244 15.2134 3.24993 14.7284 3.27482 14.2571L3.29109 13.9373C3.32332 13.2411 3.46851 12.6376 3.6086 12.054L3.64146 11.9184C3.78538 11.3166 3.92642 10.7202 4.06746 10.1234C4.21584 9.49577 4.36422 8.86714 4.51675 8.23054C4.52122 8.21267 4.5276 8.19161 4.53431 8.16959C4.5726 8.04099 4.61248 7.90793 4.55856 7.77295C4.42166 7.42226 4.34955 7.14241 4.31732 6.83735C4.27902 6.47677 4.30423 6.12448 4.39326 5.79006C4.55217 5.19239 4.8984 4.76256 5.34386 4.61067C5.45427 4.5727 5.56979 4.55674 5.68083 4.55674C5.86176 4.55674 6.02961 4.60014 6.13746 4.663C6.33116 4.7766 6.45561 4.95466 6.51719 5.20866C6.57623 5.4499 6.55963 5.78208 6.46741 6.19596C6.37041 6.62834 6.25585 6.99371 6.13427 7.38078C6.05577 7.63031 5.97632 7.88368 5.89973 8.1613L5.88633 8.2098C5.78805 8.56368 5.677 8.96479 5.78167 9.40451C5.87676 9.80275 6.08673 10.1129 6.42338 10.3535C6.75779 10.5925 7.15029 10.6994 7.61043 10.6851C8.30958 10.6614 8.93438 10.3044 9.46791 9.62405C10.0522 8.87991 10.4182 7.8824 10.5557 6.65801C10.5902 6.34593 10.6326 5.87558 10.5994 5.39534C10.5439 4.58993 10.2893 3.90195 9.84222 3.35054C9.42132 2.83137 8.83928 2.44174 8.1596 2.2238C7.45407 1.99756 6.52038 1.93948 5.72327 2.0735C4.28732 2.31538 3.17239 3.1026 2.49845 4.3506C2.12893 5.03539 1.94927 5.75273 1.94927 6.54378C1.94927 7.19346 2.10659 7.75668 2.41739 8.2181C2.46015 8.28192 2.51121 8.34127 2.56418 8.40126C2.61173 8.45551 2.65672 8.50656 2.68416 8.55411C2.70363 8.60612 2.6481 8.78609 2.6213 8.87257C2.6063 8.92139 2.59194 8.9683 2.58046 9.01202C2.56705 9.06307 2.55557 9.11764 2.54408 9.17252C2.53163 9.23251 2.51249 9.32537 2.49238 9.37643C2.41676 9.34675 2.27859 9.27081 2.20392 9.2156C1.63049 8.78865 1.42021 8.5139 1.13238 7.81731C0.916348 7.29366 0.80913 6.25754 0.916348 5.72529C1.03601 5.12889 1.29097 4.36975 1.49647 3.99672C1.95821 3.161 2.628 2.4845 3.48734 1.98607C4.16798 1.59166 4.90957 1.34085 5.75582 1.21991C6.05673 1.17619 6.37583 1.15928 6.70387 1.14428C7.54948 1.1044 8.43626 1.26714 9.19891 1.60155C9.86519 1.89417 10.4255 2.28985 10.9115 2.81158C11.4017 3.33682 11.7434 3.94311 11.9572 4.66555C12.0692 5.04113 12.1257 5.47926 12.1257 5.96684C12.1254 6.40497 12.0887 6.80576 12.0032 7.30706Z" fill="#0D232E"/>
</svg>
