<svg width="33" height="23" viewBox="0 0 33 23" fill="none" xmlns="http://www.w3.org/2000/svg">
<path d="M4.3147 13.6932C4.03921 13.8225 3.91767 14.1479 4.04044 14.426L5.29876 17.1272C5.36058 17.2617 5.47336 17.3664 5.61207 17.4181C5.67284 17.4401 5.73728 17.4515 5.80208 17.4515C5.88317 17.4522 5.9632 17.4349 6.03693 17.4014L15.5441 12.9608L14.683 21.9645C14.6663 22.1417 14.7346 22.316 14.8672 22.4344C15.284 22.7794 15.8035 22.9759 16.3439 22.9935C16.4929 22.9934 16.6411 22.9746 16.7856 22.9379C17.5574 22.7365 18.1558 22.0487 18.564 20.8741L22.3054 9.79568L29.7152 6.3393C31.8962 5.32161 33.0202 3.25805 32.2654 1.64737C31.837 0.805513 31.0166 0.232835 30.0787 0.120576C29.0367 -0.0366915 27.9717 0.127231 27.0253 0.590627L18.4744 4.60025L9.28071 1.00429C8.12292 0.568211 7.20593 0.579419 6.56285 1.04369C6.02327 1.48642 5.71627 2.15192 5.7294 2.84982C5.73501 3.02687 5.82415 3.19062 5.96986 3.29185L12.1606 7.54753L8.61521 9.22528L2.67022 7.71513C2.42661 7.65523 2.17302 7.76504 2.04955 7.9836L0.567771 10.651C0.490888 10.7924 0.478804 10.9601 0.534671 11.1111C0.590187 11.2622 0.708226 11.3818 0.858663 11.4396L5.25988 13.2573L4.3147 13.6932ZM6.87564 2.57031C6.90856 2.33388 7.02817 2.11864 7.21136 1.96628C7.53027 1.73686 8.11188 1.77048 8.88912 2.0612L17.0765 5.25454L13.3406 6.99937L6.87564 2.57031ZM1.84272 10.6456L2.81575 8.91758L8.53675 10.3379C8.66004 10.3691 8.79017 10.3573 8.9061 10.3046L27.5008 1.61952C28.24 1.2549 29.0726 1.12215 29.8887 1.23914C30.461 1.29185 30.9708 1.62215 31.2533 2.12267C31.7227 3.1295 30.8001 4.60025 29.2397 5.32722L22.7973 8.34735L23.1889 7.18938C23.2879 6.89149 23.1262 6.5696 22.8283 6.47082C22.5301 6.37205 22.2083 6.53369 22.1096 6.83159L17.507 20.5272C17.2329 21.3048 16.8917 21.769 16.5115 21.8694C16.276 21.9147 16.0322 21.8685 15.8292 21.741L16.9478 9.99673C16.977 9.68798 16.7506 9.4139 16.4415 9.38465C16.1327 9.35505 15.8586 9.58185 15.8292 9.8906L15.656 11.6857L6.05917 16.1596L5.27109 14.4818L6.84779 13.7438C7.05077 13.6543 7.18159 13.4536 7.18159 13.2321C7.18159 13.0104 7.05077 12.8097 6.84779 12.7204L1.84272 10.6456Z" fill="white"/>
</svg>
