<svg width="32" height="33" viewBox="0 0 32 33" fill="none" xmlns="http://www.w3.org/2000/svg">
<path d="M23.041 21.5005L22.8383 21.7415L23.0565 21.9684L30.6726 29.8895C31.1829 30.4202 31.166 31.2672 30.6356 31.7776L30.6355 31.7777C30.3858 32.018 30.0578 32.15 29.7104 32.15C29.3433 32.15 29.0029 32.0051 28.748 31.7404L21.0743 23.7594L20.8663 23.5431L20.6208 23.7157C18.5008 25.2055 16.0225 25.99 13.42 25.99C6.48932 25.99 0.85 20.3507 0.85 13.42C0.85 6.48932 6.48932 0.85 13.42 0.85C20.3507 0.85 25.99 6.48932 25.99 13.42C25.99 16.3864 24.9463 19.2356 23.041 21.5005ZM23.3195 13.42C23.3195 7.96095 18.879 3.52043 13.42 3.52043C7.96095 3.52043 3.52043 7.96095 3.52043 13.42C3.52043 18.879 7.96095 23.3195 13.42 23.3195C18.879 23.3195 23.3195 18.879 23.3195 13.42Z" fill="white" stroke="#EE5931" stroke-width="0.7"/>
</svg>
